<?xml version="1.0" encoding="utf-8"?>
<!-- Generator: Adobe Illustrator 27.1.1, SVG Export Plug-In . SVG Version: 6.00 Build 0)  -->
<svg version="1.1" id="Layer_1" xmlns="http://www.w3.org/2000/svg" xmlns:xlink="http://www.w3.org/1999/xlink" x="0px" y="0px"
	 viewBox="0 0 512 512" style="enable-background:new 0 0 512 512;" xml:space="preserve">
<style type="text/css">
	.st0{fill:#00D632;}
	.st1{fill:#FFFFFF;}
</style>
<g>
	<path class="st0" d="M333.6,0c51.2,0,76.8,0,104.8,8.8c30.09,11.01,53.79,34.71,64.8,64.8c8.8,28,8.8,53.6,8.8,104.88v154.96
		c0,51.36,0,77.12-8.8,104.8c-11.01,30.09-34.71,53.79-64.8,64.8c-28,8.96-53.6,8.96-104.8,8.96H178.4c-51.36,0-77.12,0-104.8-8.8
		c-30.09-11.01-53.79-34.71-64.8-64.8C0,410.4,0,384.8,0,333.52V178.4c0-51.36,0-77.12,8.8-104.8C19.81,43.51,43.51,19.81,73.6,8.8
		C101.6,0,127.2,0,178.4,0H333.6z"/>
	<path class="st1" d="M339.76,190.4c4,4,10.64,4,14.4,0l20-20.8c4.24-4,4-11.2-0.48-15.52c-15.72-13.69-33.99-24.13-53.76-30.72
		l6.32-30.4c1.36-6.64-3.6-12.88-10.24-12.88h-38.72c-4.99,0.05-9.26,3.59-10.24,8.48l-5.6,27.04c-51.52,2.64-95.2,28.8-95.2,82.4
		c0,46.4,36.08,66.32,74.24,80c36.08,13.76,55.2,18.88,55.2,38.24c0,19.92-19.04,31.6-47.2,31.6c-25.6,0-52.48-8.56-73.28-29.44
		c-4.06-4.06-10.64-4.07-14.71-0.01l-0.01,0.01l-21.6,21.6c-4.23,4.25-4.23,11.11,0,15.36c16.8,16.56,38.08,28.56,62.34,35.2
		l-5.92,28.56c-1.36,6.64,3.52,12.8,10.16,12.88l38.8,0.32c5.05,0.02,9.41-3.53,10.4-8.48l5.6-27.12
		c61.98-4.16,99.74-38.32,99.74-88.16c0-45.92-37.6-65.28-83.2-81.04c-26.08-9.68-48.64-16.32-48.64-36.24
		c0-19.36,21.04-27.04,42.16-27.04c26.88,0,52.72,11.12,69.6,26.32L339.76,190.4z"/>
</g>
</svg>
