<?xml version="1.0" encoding="utf-8"?>
<!-- Generator: Adobe Illustrator 27.0.0, SVG Export Plug-In . SVG Version: 6.00 Build 0)  -->
<svg version="1.1" id="Layer_1" xmlns="http://www.w3.org/2000/svg" xmlns:xlink="http://www.w3.org/1999/xlink" x="0px" y="0px"
	 viewBox="0 0 512 512" style="enable-background:new 0 0 512 512;" xml:space="preserve">
<style type="text/css">
	.st0{fill:#2E3B4E;}
</style>
<g id="XMLID_1_">
	<path id="XMLID_5_" class="st0" d="M426.43,0H85.57C38.29,0,0,38.29,0,85.57v340.87C0,473.71,38.29,512,85.57,512h340.87
		c47.27,0,85.57-38.29,85.57-85.57V85.57C512,38.29,473.71,0,426.43,0z M418.86,391.93c0,14.87-12.06,26.93-26.93,26.93H120.07
		c-14.87,0-27.07-12.06-27.07-26.93V120.07C93,105.21,105.07,93,120.07,93h271.85c14.87,0,26.93,12.06,26.93,27.07L418.86,391.93
		L418.86,391.93z"/>
	<path id="XMLID_6_" class="st0" d="M201.71,325.86c-8.56,0-15.43-7.01-15.43-15.57V201.85c0-8.56,6.87-15.57,15.43-15.57h108.71
		c8.56,0,15.43,7.01,15.43,15.57v108.43c0,8.56-6.87,15.57-15.43,15.57H201.71z"/>
</g>
</svg>
